<svg width="24" height="24" viewBox="0 0 24 24" fill="none" xmlns="http://www.w3.org/2000/svg">
<path d="M21.6666 12C21.6666 12.5367 21.6233 13.0633 21.5366 13.5767C21.3 15.04 20.73 16.3933 19.9066 17.5567V17.56C18.4933 19.57 16.33 21.0167 13.8266 21.4933C13.0614 21.6396 12.2814 21.6933 11.5033 21.6533H11.48C11.3233 21.6433 11.1666 21.6333 11.01 21.6167C10.9966 21.6167 10.9833 21.6133 10.97 21.6133C10.84 21.6 10.71 21.5833 10.58 21.5633C10.5433 21.5567 10.5033 21.5533 10.4666 21.5467C10.3666 21.53 10.27 21.5133 10.17 21.4933C10.0133 21.4633 9.85665 21.43 9.69998 21.39C9.63665 21.3767 9.56998 21.36 9.50665 21.3433C9.41998 21.32 9.33331 21.2933 9.24665 21.2667C9.16998 21.2433 9.08998 21.22 9.00998 21.1933C8.93104 21.1702 8.85319 21.1435 8.77665 21.1133L8.58665 21.0433C8.54998 21.0333 8.51665 21.02 8.47998 21.0033C8.17361 20.8811 7.87327 20.7443 7.57998 20.5933C7.50331 20.5533 7.42998 20.5133 7.35331 20.47C7.26665 20.4233 7.18331 20.3767 7.09998 20.3267C7.00665 20.27 6.91331 20.2167 6.81998 20.1567C6.79331 20.14 6.76665 20.12 6.73998 20.1033C6.60998 20.02 6.47998 19.93 6.35665 19.84C6.24998 19.7667 6.14665 19.6867 6.04665 19.61C6.03695 19.6032 6.02801 19.5954 6.01998 19.5867C5.92998 19.5167 5.84331 19.4467 5.75998 19.3733C5.71665 19.34 5.67331 19.3033 5.63331 19.2667L5.53665 19.18C5.52998 19.1767 5.52665 19.1733 5.52331 19.17C5.51331 19.16 5.50331 19.15 5.49331 19.1433C5.48665 19.14 5.48331 19.1333 5.47998 19.13C5.47402 19.1274 5.46927 19.1226 5.46665 19.1167C5.42396 19.0807 5.38281 19.0428 5.34331 19.0033C5.29998 18.9633 5.25998 18.9267 5.22331 18.8867C5.21665 18.88 5.20998 18.8733 5.20665 18.8667C5.17331 18.8333 5.13998 18.8033 5.10665 18.7733C5.05598 18.7227 5.00931 18.6657 4.95998 18.6133L4.95331 18.6067L4.95398 18.607C4.84265 18.489 4.73065 18.372 4.62331 18.2467C4.54331 18.1533 4.46331 18.0567 4.38665 17.9567C3.37743 16.6714 2.71208 15.1502 2.45331 13.5367C2.37331 13.0367 2.33331 12.5233 2.33331 12C2.33331 9.94334 2.97331 8.03668 4.07331 6.47001C5.13665 4.94334 6.63331 3.74001 8.38331 3.03668C9.49998 2.58001 10.72 2.33334 12 2.33334C13.2766 2.33334 14.4966 2.58001 15.61 3.03334C16.45 3.36668 17.23 3.82001 17.9333 4.37334C18.12 4.51668 18.3033 4.67001 18.48 4.83334H18.4833C18.66 4.99334 18.83 5.16001 18.9933 5.33334C19.2433 5.59001 19.4733 5.86001 19.69 6.14668C19.76 6.24001 19.8333 6.33668 19.9 6.43334V6.43668C19.9 6.43668 19.9 6.43334 19.9033 6.43668C20.07 6.66668 20.2266 6.91001 20.3666 7.16001C20.4166 7.24334 20.4633 7.32668 20.51 7.41334C20.5666 7.51668 20.62 7.61668 20.6666 7.72001C20.7033 7.79001 20.7366 7.86001 20.77 7.93334C20.8233 8.04001 20.87 8.14668 20.9133 8.25334C20.9666 8.37334 21.0133 8.49334 21.0566 8.61668C21.0933 8.71001 21.1266 8.80334 21.1566 8.90001C21.1833 8.97668 21.21 9.05668 21.2366 9.14001C21.27 9.24668 21.3 9.35334 21.33 9.46001C21.35 9.53668 21.37 9.61001 21.3866 9.68668C21.4466 9.92334 21.4966 10.16 21.5333 10.4033C21.5466 10.4733 21.5566 10.5433 21.5666 10.6167C21.5833 10.7233 21.5966 10.8333 21.6066 10.94C21.6133 10.9867 21.62 11.0333 21.6233 11.0767C21.6333 11.1933 21.6433 11.31 21.6466 11.43C21.6533 11.48 21.6566 11.5267 21.6566 11.5767C21.6633 11.7167 21.6666 11.8567 21.6666 12Z" fill="white"/>
<path d="M21.6666 12C21.6666 12.5367 21.6233 13.0633 21.5366 13.5767C21.3 15.04 20.73 16.3933 19.9066 17.5567V17.56C18.4933 19.57 16.33 21.0167 13.8266 21.4933C13.0614 21.6395 12.2814 21.6933 11.5033 21.6533H11.48C11.3233 21.6433 11.1666 21.6333 11.01 21.6167C10.9966 21.6167 10.9833 21.6133 10.97 21.6133C10.84 21.6 10.71 21.5833 10.58 21.5633C10.5433 21.5567 10.5033 21.5533 10.4666 21.5467C10.3666 21.53 10.27 21.5133 10.17 21.4933C10.0133 21.4633 9.85664 21.43 9.69998 21.39C9.63664 21.3767 9.56998 21.36 9.50664 21.3433C9.41998 21.32 9.33331 21.2933 9.24664 21.2667C9.16997 21.2433 9.08998 21.22 9.00998 21.1933C8.93104 21.1702 8.85318 21.1435 8.77664 21.1133L8.58664 21.0433C8.54998 21.0333 8.51664 21.02 8.47998 21.0033C8.34998 20.95 8.21998 20.8967 8.09331 20.84C8.00664 20.8 7.91998 20.76 7.83664 20.72C7.74997 20.68 7.66664 20.6367 7.57997 20.5933C7.50331 20.5533 7.42997 20.5133 7.35331 20.47C7.26664 20.4233 7.18331 20.3767 7.09997 20.3267C7.00664 20.27 6.91331 20.2167 6.81997 20.1567C6.79331 20.14 6.76664 20.12 6.73997 20.1033C6.60997 20.02 6.47997 19.93 6.35664 19.84C6.24997 19.7667 6.14664 19.6867 6.04664 19.61C6.03695 19.6032 6.02801 19.5954 6.01997 19.5867C5.92997 19.5167 5.84331 19.4467 5.75998 19.3733C5.6657 19.2933 5.57236 19.2122 5.47998 19.13C5.47402 19.1274 5.46926 19.1226 5.46664 19.1167C5.37997 19.0333 5.28997 18.9533 5.20664 18.8667C5.11997 18.78 5.03664 18.6933 4.95331 18.6067C6.28331 19.3867 7.81997 19.8633 9.45997 19.9233C9.58664 19.93 9.71331 19.9333 9.83998 19.9333C12.0933 19.9333 14.17 19.1633 15.8133 17.8667C17.81 16.2967 19.1733 13.9567 19.4533 11.2933C19.49 10.9567 19.5066 10.6133 19.5066 10.2667C19.5066 9.57666 19.4333 8.90666 19.2966 8.25999V8.25666C18.9334 6.54268 18.1093 4.96031 16.9133 3.67999C17.2666 3.88999 17.61 4.12333 17.9333 4.37333C18.12 4.51999 18.3033 4.67333 18.48 4.83333C18.48 4.83333 18.48 4.82999 18.4833 4.83333C18.66 4.99666 18.83 5.15999 18.9933 5.33333C19.32 5.67666 19.6266 6.04666 19.9 6.43666C20.0666 6.66999 20.2233 6.90999 20.3666 7.15999C20.4166 7.24333 20.4633 7.32666 20.51 7.41333C20.5666 7.51666 20.62 7.61666 20.6666 7.71999C20.7033 7.78999 20.7366 7.85999 20.77 7.93333C20.8233 8.03999 20.87 8.14666 20.9133 8.25333C20.9666 8.37333 21.0133 8.49333 21.0566 8.61666C21.0933 8.70999 21.1266 8.80333 21.1566 8.89999C21.1833 8.97666 21.21 9.05666 21.2366 9.13999C21.27 9.24666 21.3 9.35333 21.33 9.45999C21.35 9.53666 21.37 9.60999 21.3866 9.68666C21.4466 9.92333 21.4966 10.16 21.5333 10.4033C21.5466 10.4733 21.5566 10.5433 21.5666 10.6167C21.5833 10.7233 21.5966 10.8333 21.6066 10.94C21.6133 10.9867 21.62 11.0333 21.6233 11.0767C21.6333 11.1933 21.6433 11.31 21.6466 11.43C21.6533 11.48 21.6566 11.5267 21.6566 11.5767C21.6633 11.7167 21.6666 11.8567 21.6666 12Z" fill="#D0CFCE"/>
<path d="M21.6666 12C21.6666 12.5367 21.6233 13.0633 21.5366 13.5767C21.3 15.04 20.73 16.3933 19.9066 17.5567V17.56C18.4933 19.57 16.33 21.0167 13.8266 21.4933C13.0614 21.6396 12.2814 21.6933 11.5033 21.6533H11.48C11.3233 21.6433 11.1666 21.6333 11.01 21.6167C10.9966 21.6167 10.9833 21.6133 10.97 21.6133C10.84 21.6 10.71 21.5833 10.58 21.5633C10.5433 21.5567 10.5033 21.5533 10.4666 21.5467C10.3666 21.53 10.27 21.5133 10.17 21.4933C10.0133 21.4633 9.85665 21.43 9.69998 21.39C9.63665 21.3767 9.56998 21.36 9.50665 21.3433C9.41998 21.32 9.33331 21.2933 9.24665 21.2667C9.16998 21.2433 9.08998 21.22 9.00998 21.1933C8.93104 21.1702 8.85319 21.1435 8.77665 21.1133L8.58665 21.0433C8.54998 21.0333 8.51665 21.02 8.47998 21.0033C8.17361 20.8811 7.87327 20.7443 7.57998 20.5933C7.50331 20.5533 7.42998 20.5133 7.35331 20.47C7.26665 20.4233 7.18331 20.3767 7.09998 20.3267C7.00665 20.27 6.91331 20.2167 6.81998 20.1567C6.79331 20.14 6.76665 20.12 6.73998 20.1033C6.60998 20.02 6.47998 19.93 6.35665 19.84C6.24998 19.7667 6.14665 19.6867 6.04665 19.61C6.03695 19.6032 6.02801 19.5954 6.01998 19.5867C5.92998 19.5167 5.84331 19.4467 5.75998 19.3733C5.71665 19.34 5.67331 19.3033 5.63331 19.2667L5.53665 19.18C5.52998 19.1767 5.52665 19.1733 5.52331 19.17C5.51331 19.16 5.50331 19.15 5.49331 19.1433C5.48665 19.14 5.48331 19.1333 5.47998 19.13C5.47402 19.1274 5.46927 19.1226 5.46665 19.1167C5.42396 19.0806 5.38281 19.0428 5.34331 19.0033C5.29998 18.9633 5.25998 18.9267 5.22331 18.8867C5.21665 18.88 5.20998 18.8733 5.20665 18.8667C5.17331 18.8333 5.13998 18.8033 5.10665 18.7733C5.05598 18.7227 5.00931 18.6657 4.95998 18.6133L4.95331 18.6067L4.95398 18.607C4.84265 18.489 4.73065 18.372 4.62331 18.2467C4.54331 18.1533 4.46331 18.0567 4.38665 17.9567C3.37743 16.6714 2.71208 15.1502 2.45331 13.5367C2.37331 13.0367 2.33331 12.5233 2.33331 12C2.33331 9.94334 2.97331 8.03668 4.07331 6.47001C5.13665 4.94334 6.63331 3.74001 8.38331 3.03668C9.49998 2.58001 10.72 2.33334 12 2.33334C13.2766 2.33334 14.4966 2.58001 15.61 3.03334C16.45 3.36668 17.23 3.82001 17.9333 4.37334C18.12 4.51668 18.3033 4.67001 18.48 4.83334H18.4833C18.66 4.99334 18.83 5.16001 18.9933 5.33334C19.2433 5.59001 19.4733 5.86001 19.69 6.14668C19.76 6.24001 19.8333 6.33668 19.9 6.43334V6.43668C19.9 6.43668 19.9 6.43334 19.9033 6.43668C20.07 6.66668 20.2266 6.91001 20.3666 7.16001C20.4166 7.24334 20.4633 7.32668 20.51 7.41334C20.5666 7.51668 20.62 7.61668 20.6666 7.72001C20.7033 7.79001 20.7366 7.86001 20.77 7.93334C20.8233 8.04001 20.87 8.14668 20.9133 8.25334C20.9666 8.37334 21.0133 8.49334 21.0566 8.61668C21.0933 8.71001 21.1266 8.80334 21.1566 8.90001C21.1833 8.97668 21.21 9.05668 21.2366 9.14001C21.27 9.24668 21.3 9.35334 21.33 9.46001C21.35 9.53668 21.37 9.61001 21.3866 9.68668C21.4466 9.92334 21.4966 10.16 21.5333 10.4033C21.5466 10.4733 21.5566 10.5433 21.5666 10.6167C21.5833 10.7233 21.5966 10.8333 21.6066 10.94C21.6133 10.9867 21.62 11.0333 21.6233 11.0767C21.6333 11.1933 21.6433 11.31 21.6466 11.43C21.6533 11.48 21.6566 11.5267 21.6566 11.5767C21.6633 11.7167 21.6666 11.8567 21.6666 12Z" stroke="black" stroke-width="0.666667" stroke-miterlimit="10" stroke-linecap="round" stroke-linejoin="round"/>
<path d="M11.4123 9.35768L9.36031 10.8483C9.18946 10.9725 9.06229 11.1475 8.99702 11.3483C8.93175 11.5492 8.93174 11.7655 8.99698 11.9663L9.78098 14.3783C9.84623 14.5792 9.97339 14.7542 10.1442 14.8783C10.3151 15.0025 10.5208 15.0693 10.732 15.0693H13.268C13.4792 15.0694 13.685 15.0026 13.8559 14.8784C14.0268 14.7543 14.154 14.5792 14.2193 14.3783L15.0026 11.9663C15.0679 11.7655 15.0679 11.5492 15.0026 11.3483C14.9373 11.1475 14.8102 10.9725 14.6393 10.8483L12.5876 9.35768C12.4168 9.2336 12.2111 9.16678 12 9.16678C11.7889 9.16678 11.5831 9.2336 11.4123 9.35768ZM15.4266 3.39334L12.6233 4.76668C12.4266 4.86001 12.2133 4.90668 12 4.90334C11.81 4.90001 11.62 4.85668 11.44 4.77334L8.56998 3.40668C8.42998 3.34001 8.35665 3.18334 8.38331 3.03668C9.49998 2.58001 10.72 2.33334 12 2.33334C13.2766 2.33334 14.4966 2.58001 15.61 3.03334C15.6366 3.17668 15.5666 3.32668 15.4266 3.39334ZM10.17 21.4933C10.0133 21.4633 9.85665 21.43 9.69998 21.39C9.63665 21.3767 9.56998 21.36 9.50665 21.3433C9.41998 21.32 9.33331 21.2933 9.24665 21.2667C9.16998 21.2433 9.08998 21.22 9.00998 21.1933C8.93104 21.1702 8.85319 21.1435 8.77665 21.1133L8.58665 21.0433C8.54998 21.0333 8.51665 21.02 8.47998 21.0033C8.34998 20.95 8.21998 20.8967 8.09331 20.84C7.91931 20.7633 7.74898 20.68 7.58031 20.593C7.50365 20.5537 7.42865 20.5123 7.35331 20.471C7.26798 20.4243 7.18331 20.376 7.09998 20.3267C7.0057 20.2718 6.91235 20.2154 6.81998 20.1573C6.79265 20.14 6.76631 20.1213 6.73931 20.1037C5.6954 19.428 4.79138 18.5576 4.07665 17.54C4.13998 17.4267 4.26998 17.3567 4.41331 17.3733L7.52665 17.7533C7.73998 17.78 7.93998 17.8533 8.11331 17.97C8.27665 18.08 8.41665 18.2233 8.51998 18.3933L9.45998 19.9233L10.19 21.1167C10.2633 21.2367 10.2533 21.3867 10.17 21.4933ZM5.05331 10.4567C5.0054 10.6525 4.91555 10.8356 4.78998 10.9933L2.82331 13.4267C2.72998 13.54 2.57998 13.58 2.45331 13.5367C2.37331 13.0367 2.33331 12.5233 2.33331 12C2.33331 9.94334 2.97331 8.03668 4.07331 6.47001C4.21331 6.48668 4.33665 6.58668 4.36665 6.73334L5.05998 9.84334C5.10665 10.0467 5.10331 10.2567 5.05331 10.4567ZM19.9066 17.5567V17.56C18.4933 19.57 16.33 21.0167 13.8266 21.4933C13.74 21.3867 13.73 21.2333 13.8033 21.11L15.4666 18.3967C15.5737 18.2224 15.7186 18.0745 15.8905 17.9637C16.0624 17.8529 16.2571 17.7822 16.46 17.7567L19.5633 17.3767C19.71 17.36 19.8433 17.4367 19.9066 17.5567ZM21.6666 12C21.6666 12.5367 21.6233 13.0633 21.5366 13.5767C21.4757 13.5904 21.4122 13.5867 21.3533 13.5661C21.2943 13.5455 21.2424 13.5087 21.2033 13.46L19.4533 11.2933L19.21 10.9933C19.081 10.8345 18.99 10.6484 18.9438 10.4492C18.8976 10.2499 18.8974 10.0427 18.9433 9.84334L19.2966 8.26001V8.25668L19.6433 6.69334C19.67 6.56334 19.7733 6.46334 19.9 6.43668C19.9 6.43334 19.9 6.43334 19.9033 6.43668C20.07 6.66668 20.2266 6.91001 20.3666 7.16001C20.4166 7.24334 20.4633 7.32668 20.51 7.41334C20.5666 7.51668 20.62 7.61668 20.6666 7.72001C20.7033 7.79001 20.7366 7.86001 20.77 7.93334C20.8233 8.04001 20.87 8.14668 20.9133 8.25334C20.9666 8.37334 21.0133 8.49334 21.0566 8.61668C21.0933 8.71001 21.1266 8.80334 21.1566 8.90001C21.1833 8.97668 21.21 9.05668 21.2366 9.14001C21.27 9.24668 21.3 9.35334 21.33 9.46001C21.35 9.53668 21.37 9.61001 21.3866 9.68668C21.4466 9.92334 21.4966 10.16 21.5333 10.4033C21.5466 10.4733 21.5566 10.5433 21.5666 10.6167C21.5833 10.7233 21.5966 10.8333 21.6066 10.94C21.6133 10.9867 21.62 11.0333 21.6233 11.0767C21.6333 11.1933 21.6433 11.31 21.6466 11.43C21.6533 11.48 21.6566 11.5267 21.6566 11.5767C21.6633 11.7167 21.6666 11.8567 21.6666 12Z" fill="black"/>
<path d="M12 4.90399V9.16666M14.9964 11.33L18.9377 10.4423M13.8637 14.8723L15.8794 17.971M10.1314 14.8687L8.11435 17.971M9.00035 11.3397L5.05469 10.4577" stroke="black" stroke-width="0.666667" stroke-miterlimit="10" stroke-linecap="round" stroke-linejoin="round"/>
</svg>
