<svg width="24" height="24" viewBox="0 0 24 24" fill="none" xmlns="http://www.w3.org/2000/svg">
<path d="M21.7313 12.6375C21.736 12.6001 21.736 12.5623 21.7313 12.525C21.7406 12.3469 21.75 12.1781 21.75 12C21.7533 9.77839 20.9919 7.62334 19.5938 5.89686C19.5612 5.83543 19.5166 5.78122 19.4625 5.73749C18.4289 4.50196 17.105 3.54205 15.6094 2.94374L15.5063 2.90624C13.2507 2.03113 10.7494 2.03113 8.49376 2.90624L8.39064 2.94374C6.89501 3.54205 5.57112 4.50196 4.53751 5.73749C4.48346 5.78122 4.43882 5.83543 4.40626 5.89686C3.00812 7.62334 2.24673 9.77839 2.25001 12C2.25001 12.1781 2.25939 12.3469 2.26876 12.525C2.26405 12.5623 2.26405 12.6001 2.26876 12.6375C2.37688 14.2484 2.88258 15.8074 3.74064 17.175C3.76947 17.2315 3.80403 17.2849 3.84376 17.3344C5.16148 19.3456 7.17404 20.8008 9.49689 21.4219H9.52501C11.1476 21.8468 12.8524 21.8468 14.475 21.4219H14.5031C16.826 20.8008 18.8385 19.3456 20.1563 17.3344C20.196 17.2849 20.2305 17.2315 20.2594 17.175C21.1174 15.8074 21.6231 14.2484 21.7313 12.6375ZM3.79689 12.8906L6.42189 10.9781L7.65939 11.3812L8.85001 15.0562L8.09064 16.1062H4.84689C4.27396 15.1204 3.91612 14.0246 3.79689 12.8906ZM4.80001 7.97811L5.40939 9.86249L3.80626 11.025C3.9342 9.95396 4.27188 8.91862 4.80001 7.97811ZM10.2281 14.4375L9.14064 11.0719L12 8.99061L14.8594 11.0719L13.7719 14.4375H10.2281ZM15.9094 16.1062L15.15 15.0562L16.3406 11.3812L17.5781 10.9781L20.2031 12.8906C20.0839 14.0246 19.7261 15.1204 19.1531 16.1062H15.9094ZM20.1938 11.025L18.5906 9.86249L19.2 7.97811C19.7281 8.91862 20.0658 9.95396 20.1938 11.025ZM18.1125 6.46874L17.1094 9.55311L15.8719 9.95624L12.75 7.67811V6.38436L15.375 4.47186C16.4172 4.93851 17.3499 5.61882 18.1125 6.46874ZM13.6031 3.90936L12 5.07186L10.3969 3.90936C11.4551 3.69698 12.5449 3.69698 13.6031 3.90936ZM8.62501 4.47186L11.25 6.38436V7.67811L8.12814 9.95624L6.89064 9.55311L5.88751 6.46874C6.65016 5.61882 7.58278 4.93851 8.62501 4.47186ZM5.95314 17.6062H7.93126L8.54064 19.4906C7.56485 19.035 6.68625 18.3951 5.95314 17.6062ZM10.3125 20.0719L9.30939 16.9875L10.0688 15.9375H13.9313L14.6906 16.9875L13.6875 20.0719C12.575 20.3094 11.425 20.3094 10.3125 20.0719ZM15.4594 19.4906L16.0688 17.6062H18.0469C17.3138 18.3951 16.4352 19.035 15.4594 19.4906Z" fill="white" fill-opacity="0.4"/>
</svg>
