<svg width="123" height="39" viewBox="0 0 123 39" fill="none" xmlns="http://www.w3.org/2000/svg">
<g clip-path="url(#clip0_932_598)">
<path d="M69.696 5.37215L68.8198 2.93466C68.7189 2.72755 68.4959 2.58948 68.2622 2.58948C68.0286 2.58948 67.8108 2.72755 67.7099 2.93466L66.8337 5.37215L64.3909 6.2643C64.1626 6.34927 64.0032 6.57762 64.0086 6.81659C64.0086 7.05556 64.1679 7.2786 64.3909 7.35826L66.8178 8.25041L67.7099 10.6826C67.7896 10.9163 68.0179 11.0809 68.2622 11.0809C68.5065 11.0809 68.7349 10.9163 68.8145 10.6826L69.6907 8.25041L72.1176 7.35826C72.3406 7.2786 72.5 7.05556 72.5 6.81659C72.5 6.57231 72.3406 6.34396 72.1176 6.2643L69.696 5.37215ZM62.665 8.18669C62.0012 7.52288 60.9232 7.52288 60.2594 8.18669L60.1054 8.34069C58.9371 7.91585 57.6732 7.6875 56.3615 7.6875C50.2598 7.6875 45.3158 12.6315 45.3158 18.7332C45.3158 24.8349 50.2598 29.779 56.3615 29.779C62.4632 29.779 67.4072 24.8349 67.4072 18.7332C67.4072 17.4215 67.1789 16.1577 66.7594 14.9894L66.9134 14.8354C67.5772 14.1716 67.5772 13.0935 66.9134 12.4297L62.665 8.18138V8.18669ZM55.9367 12.7855C52.8885 12.7855 50.4138 15.2602 50.4138 18.3084V18.7332C50.4138 19.2005 50.0315 19.5829 49.5642 19.5829C49.0968 19.5829 48.7145 19.2005 48.7145 18.7332V18.3084C48.7145 14.3202 51.9485 11.0862 55.9367 11.0862H56.3615C56.8288 11.0862 57.2112 11.4685 57.2112 11.9359C57.2112 12.4032 56.8288 12.7855 56.3615 12.7855H55.9367Z" fill="#685CD1"/>
</g>
<path d="M16.7644 19.6261C17.8347 19.8678 18.6806 20.4029 19.3021 21.2316C19.9408 22.0429 20.2602 22.9752 20.2602 24.0282C20.2602 25.5819 19.725 26.7989 18.6547 27.6794C17.5844 28.5598 16.0825 29 14.149 29H5.11178V10.7442H13.8642C15.7286 10.7442 17.1874 11.1585 18.2404 11.9872C19.3107 12.8158 19.8459 13.9811 19.8459 15.4829C19.8459 16.5533 19.561 17.4509 18.9914 18.176C18.4389 18.8838 17.6966 19.3672 16.7644 19.6261ZM10.1872 17.9947H12.7507C14.0282 17.9947 14.6669 17.4682 14.6669 16.4152C14.6669 15.3276 14.0282 14.7838 12.7507 14.7838H10.1872V17.9947ZM13.1392 24.9086C14.4166 24.9086 15.0554 24.3735 15.0554 23.3032C15.0554 22.7507 14.8827 22.3278 14.5375 22.0343C14.2095 21.7408 13.7347 21.5941 13.1133 21.5941H10.1872V24.9086H13.1392ZM35.0694 21.5682C35.0694 21.9653 35.0435 22.3623 34.9917 22.7594H25.3847C25.4365 23.5535 25.6523 24.1491 26.0321 24.5461C26.4292 24.9259 26.9298 25.1158 27.534 25.1158C28.3799 25.1158 28.9841 24.736 29.3466 23.9764H34.7586C34.5342 24.9777 34.094 25.8754 33.438 26.6695C32.7993 27.4463 31.9879 28.0592 31.0039 28.508C30.0199 28.9568 28.9323 29.1813 27.7412 29.1813C26.3083 29.1813 25.0308 28.8792 23.9087 28.2749C22.8039 27.6707 21.9321 26.8076 21.2934 25.6855C20.6719 24.5634 20.3612 23.2427 20.3612 21.7236C20.3612 20.2044 20.6719 18.8924 21.2934 17.7876C21.9148 16.6655 22.778 15.8023 23.8828 15.1981C25.0049 14.5939 26.291 14.2918 27.7412 14.2918C29.174 14.2918 30.4428 14.5853 31.5477 15.1722C32.6525 15.7592 33.5157 16.6051 34.1372 17.7099C34.7586 18.7975 35.0694 20.0836 35.0694 21.5682ZM29.8904 20.2994C29.8904 19.6779 29.6833 19.1945 29.2689 18.8493C28.8546 18.4867 28.3367 18.3055 27.7153 18.3055C27.0938 18.3055 26.5845 18.4781 26.1875 18.8234C25.7904 19.1514 25.5315 19.6434 25.4106 20.2994H29.8904ZM44.4228 24.6756V29H42.2218C38.5102 29 36.6544 27.1615 36.6544 23.4844V18.6939H34.8677V14.4731H36.6544V10.9514H41.7557V14.4731H44.3969V18.6939H41.7557V23.5621C41.7557 23.9592 41.842 24.244 42.0146 24.4166C42.2045 24.5893 42.5152 24.6756 42.9468 24.6756H44.4228ZM78.2242 14.3436C79.8987 14.3436 81.2279 14.9046 82.2119 16.0267C83.1959 17.1316 83.6879 18.6335 83.6879 20.5324V29H78.6126V21.2057C78.6126 20.3771 78.3968 19.7297 77.9652 19.2636C77.5336 18.7802 76.9553 18.5385 76.2303 18.5385C75.4707 18.5385 74.8751 18.7802 74.4435 19.2636C74.0119 19.7297 73.7962 20.3771 73.7962 21.2057V29H68.7208V14.4731H73.7962V16.5446C74.245 15.8886 74.8492 15.3621 75.6088 14.9651C76.3684 14.5507 77.2402 14.3436 78.2242 14.3436ZM106.489 10.7442V29H101.414V18.9269L97.9701 29H93.7234L90.2535 18.8493V29H85.1781V10.7442H91.3152L95.8985 22.604L100.378 10.7442H106.489ZM121.963 21.5682C121.963 21.9653 121.938 22.3623 121.886 22.7594H112.279C112.331 23.5535 112.546 24.1491 112.926 24.5461C113.323 24.9259 113.824 25.1158 114.428 25.1158C115.274 25.1158 115.878 24.736 116.241 23.9764H121.653C121.428 24.9777 120.988 25.8754 120.332 26.6695C119.693 27.4463 118.882 28.0592 117.898 28.508C116.914 28.9568 115.826 29.1813 114.635 29.1813C113.202 29.1813 111.925 28.8792 110.803 28.2749C109.698 27.6707 108.826 26.8076 108.187 25.6855C107.566 24.5634 107.255 23.2427 107.255 21.7236C107.255 20.2044 107.566 18.8924 108.187 17.7876C108.809 16.6655 109.672 15.8023 110.777 15.1981C111.899 14.5939 113.185 14.2918 114.635 14.2918C116.068 14.2918 117.337 14.5853 118.442 15.1722C119.547 15.7592 120.41 16.6051 121.031 17.7099C121.653 18.7975 121.963 20.0836 121.963 21.5682ZM116.784 20.2994C116.784 19.6779 116.577 19.1945 116.163 18.8493C115.749 18.4867 115.231 18.3055 114.609 18.3055C113.988 18.3055 113.479 18.4781 113.082 18.8234C112.684 19.1514 112.426 19.6434 112.305 20.2994H116.784Z" fill="white"/>
<defs>
<clipPath id="clip0_932_598">
<rect width="27.1895" height="27.1895" fill="white" transform="translate(45.3158 2.58948)"/>
</clipPath>
</defs>
</svg>
