<svg width="16" height="20" viewBox="0 0 16 20" fill="none" xmlns="http://www.w3.org/2000/svg">
<path d="M15.7143 1.42857V6.41741C15.7143 6.84152 15.6436 7.24702 15.5022 7.63393C15.3609 8.02083 15.16 8.37054 14.8996 8.68304C14.6391 8.99554 14.3304 9.25967 13.9732 9.47545C13.6161 9.69122 13.2292 9.84003 12.8125 9.92187C12.7455 10.4799 12.593 11.0007 12.3549 11.4844C12.1168 11.968 11.808 12.4033 11.4286 12.7902C11.0491 13.1771 10.6176 13.4933 10.1339 13.7388C9.6503 13.9844 9.12946 14.1481 8.57143 14.2299V15.7143H12.8571V18.5714H14.2857V20H1.42857V18.5714H2.85714V15.7143H7.14286V14.2299C6.58482 14.1555 6.06399 13.9955 5.58036 13.75C5.09673 13.5045 4.6689 13.1882 4.29687 12.8013C3.92485 12.4144 3.61607 11.9792 3.37054 11.4955C3.125 11.0119 2.96875 10.4874 2.90179 9.92187C2.48512 9.84003 2.09821 9.69122 1.74107 9.47545C1.38393 9.25967 1.07887 8.99926 0.825893 8.6942C0.572917 8.38914 0.372024 8.03943 0.223214 7.64509C0.0744047 7.25074 0 6.84152 0 6.41741V1.42857H2.85714V0H12.8571V1.42857H15.7143ZM4.28571 17.1429V18.5714H11.4286V17.1429H4.28571ZM1.42857 6.41741C1.42857 6.64062 1.46205 6.8564 1.52902 7.06473C1.59598 7.27307 1.69271 7.46652 1.8192 7.64509C1.94568 7.82366 2.09449 7.97991 2.26562 8.11384C2.43676 8.24777 2.63393 8.35565 2.85714 8.4375V2.85714H1.42857V6.41741ZM7.85714 12.8571C8.34821 12.8571 8.80952 12.7641 9.24107 12.5781C9.67262 12.3921 10.0484 12.1391 10.3683 11.8192C10.6882 11.4993 10.9449 11.1198 11.1384 10.6808C11.3318 10.2418 11.4286 9.77679 11.4286 9.28571V1.42857H4.28571V9.28571C4.28571 9.77679 4.37872 10.2381 4.56473 10.6696C4.75074 11.1012 5.00372 11.4807 5.32366 11.808C5.6436 12.1354 6.02307 12.3921 6.46205 12.5781C6.90104 12.7641 7.36607 12.8571 7.85714 12.8571ZM14.2857 2.85714H12.8571V8.4375C13.0655 8.3631 13.2589 8.25893 13.4375 8.125C13.6161 7.99107 13.7649 7.83482 13.8839 7.65625C14.003 7.47768 14.0997 7.28423 14.1741 7.07589C14.2485 6.86756 14.2857 6.64807 14.2857 6.41741V2.85714Z" fill="white" fill-opacity="0.4"/>
</svg>
