<svg width="18" height="18" viewBox="0 0 18 18" fill="none" xmlns="http://www.w3.org/2000/svg">
<rect width="18" height="18" fill="white" fill-opacity="0.4"/>
<path d="M3.65625 11.25H2.53125C2.37592 11.25 2.25 11.3759 2.25 11.5312V16.5938C2.25 16.7491 2.37592 16.875 2.53125 16.875H3.65625C3.81158 16.875 3.9375 16.7491 3.9375 16.5938V11.5312C3.9375 11.3759 3.81158 11.25 3.65625 11.25Z" stroke="white" stroke-width="1.5" stroke-linecap="round" stroke-linejoin="round"/>
<path d="M11.5312 7.875H10.4062C10.2509 7.875 10.125 8.00092 10.125 8.15625V16.5938C10.125 16.7491 10.2509 16.875 10.4062 16.875H11.5312C11.6866 16.875 11.8125 16.7491 11.8125 16.5938V8.15625C11.8125 8.00092 11.6866 7.875 11.5312 7.875Z" stroke="white" stroke-width="1.5" stroke-linecap="round" stroke-linejoin="round"/>
<path d="M15.4688 3.9375H14.3438C14.1884 3.9375 14.0625 4.06342 14.0625 4.21875V16.5938C14.0625 16.7491 14.1884 16.875 14.3438 16.875H15.4688C15.6241 16.875 15.75 16.7491 15.75 16.5938V4.21875C15.75 4.06342 15.6241 3.9375 15.4688 3.9375Z" stroke="white" stroke-width="1.5" stroke-linecap="round" stroke-linejoin="round"/>
<path d="M7.59375 1.125H6.46875C6.31342 1.125 6.1875 1.25092 6.1875 1.40625V16.5938C6.1875 16.7491 6.31342 16.875 6.46875 16.875H7.59375C7.74908 16.875 7.875 16.7491 7.875 16.5938V1.40625C7.875 1.25092 7.74908 1.125 7.59375 1.125Z" stroke="white" stroke-width="1.5" stroke-linecap="round" stroke-linejoin="round"/>
</svg>
