<svg width="25" height="31" viewBox="0 0 25 31" fill="none" xmlns="http://www.w3.org/2000/svg">
<path d="M10.3557 9.71505C9.93869 10.6207 10.3116 11.7813 11.2598 12.2178C12.2079 12.6544 13.333 12.1835 13.75 11.2778C14.1706 10.3641 13.7752 9.22914 12.8351 8.79629C11.8958 8.36381 10.7767 8.80055 10.3557 9.71505ZM11.6288 11.4163C11.1495 11.1957 10.9321 10.573 11.1572 10.0841C11.3786 9.60317 11.978 9.37305 12.4661 9.59778C12.955 9.82287 13.1695 10.4287 12.9485 10.9088C12.7234 11.3977 12.1089 11.6374 11.6288 11.4163ZM14.3928 11.5738C13.9798 12.4706 14.3242 13.6404 15.2804 14.0806C16.227 14.5164 17.3701 14.0442 17.7878 13.1369C18.2148 12.2096 17.7774 11.0961 16.8509 10.6695C16.4049 10.4642 15.8957 10.444 15.4349 10.6135C14.9741 10.7831 14.5994 11.1284 14.3928 11.5738ZM15.6494 13.2791C15.1781 13.0622 14.9651 12.4405 15.1942 11.9428C15.4142 11.4651 15.9914 11.2452 16.4819 11.471C16.9836 11.702 17.2015 12.3006 16.9864 12.7679C16.762 13.2552 16.1303 13.5005 15.6494 13.2791ZM15.7426 17.2795L12.1108 25.1677C11.9913 25.4273 11.7166 25.5534 11.4946 25.4512C11.2726 25.349 11.1898 25.0583 11.3093 24.7987L14.9375 16.9185C15.0566 16.6596 15.3317 16.5327 15.5537 16.6349C15.7722 16.7258 15.8585 17.0278 15.7426 17.2795ZM14.1397 16.5414L10.5079 24.4296C10.3883 24.6893 10.1136 24.8154 9.89161 24.7132C9.6696 24.611 9.58681 24.3203 9.70637 24.0606L13.3345 16.1804C13.4537 15.9216 13.7287 15.7947 13.9507 15.8969C14.1764 15.9911 14.2555 16.2898 14.1397 16.5414ZM16.9039 6.31784L15.9737 8.33838C15.8224 8.66699 15.9654 9.05245 16.2933 9.20338L18.3146 10.134C18.6432 10.2853 19.0287 10.1422 19.1796 9.81443L20.1102 7.79308C20.2615 7.46447 20.1185 7.07901 19.7906 6.92808L17.7701 5.99781C17.6924 5.96176 17.6083 5.94143 17.5226 5.93799C17.437 5.93455 17.3515 5.94807 17.2712 5.97777C17.1908 6.00747 17.1171 6.05277 17.0542 6.11105C16.9914 6.16934 16.9407 6.23947 16.9051 6.31741L16.9039 6.31784ZM8.17279 18.9523L6.61113 22.3441C6.43069 22.7361 5.93949 22.8936 5.5115 22.6966C5.0835 22.4995 4.88382 22.0239 5.06427 21.632L6.62592 18.2401C6.80637 17.8481 7.29757 17.6906 7.72556 17.8877C8.16237 18.0888 8.35324 18.5603 8.17279 18.9523Z" fill="white" fill-opacity="0.4"/>
<path d="M1.17714 21.4878C0.518829 22.9177 1.18139 24.5885 2.59841 25.2409L11.0268 29.1214C12.4439 29.7738 14.1441 29.1909 14.8024 27.761L20.1272 16.1956C20.4021 15.5985 20.1958 14.9517 19.7601 14.5772C19.6752 14.506 19.6154 14.4094 19.5895 14.3017C19.5635 14.1939 19.5729 14.0807 19.6161 13.9786C19.7068 13.7815 19.9256 13.6607 20.1609 13.6981L20.1637 13.6984C20.7323 13.7864 21.3579 13.5226 21.6328 12.9255L23.5184 8.82993C24.1767 7.40009 23.5142 5.72928 22.0972 5.07686L13.6687 1.19635C12.2517 0.543934 10.5515 1.1269 9.89318 2.55675L8.00754 6.65234C7.73262 7.24944 7.939 7.8962 8.37467 8.27067C8.45957 8.34191 8.51937 8.43851 8.54529 8.54626C8.57122 8.65401 8.56189 8.76723 8.5187 8.8693C8.47087 8.96906 8.39175 9.05046 8.29339 9.1011C8.19502 9.15173 8.08279 9.16882 7.97381 9.14977L7.97104 9.14947C7.40245 9.06156 6.77689 9.32529 6.50197 9.92239L1.17714 21.4878ZM3.33643 23.6379C2.76818 23.3763 2.54542 22.7356 2.78011 22.2258L7.98538 10.9201C8.4311 10.9356 8.8715 10.8193 9.25147 10.5858C9.63145 10.3523 9.93414 10.012 10.1217 9.60732C10.3058 9.20156 10.3668 8.75069 10.2971 8.31059C10.2275 7.87049 10.0302 7.46051 9.7297 7.13148L11.4962 3.29477C11.7308 2.78503 12.3625 2.53769 12.9307 2.79932L21.3591 6.67983C21.9274 6.94146 22.1501 7.58217 21.9155 8.09191L20.1494 11.9278C19.7036 11.9123 19.2633 12.0286 18.8833 12.2621C18.5033 12.4956 18.2006 12.836 18.0131 13.2406C17.8289 13.6464 17.7679 14.0972 17.8376 14.5373C17.9073 14.9774 18.1046 15.3874 18.4051 15.7164L13.1994 27.023C12.9647 27.5327 12.3331 27.7801 11.7648 27.5184L3.33643 23.6379Z" fill="white" fill-opacity="0.4"/>
</svg>
